<svg xmlns="http://www.w3.org/2000/svg" width="13" height="13" viewBox="0 0 13 13">
  <defs>
    <clipPath id="circle">
      <circle cx="6.5" cy="6.5" r="6.5"/>
    </clipPath>
  </defs>
  <g clip-path="url(#circle)">
    <path fill="#E53935" d="M6.5 6.5L6.5 0A6.5 6.5 0 0 1 9.75.87Z"/>
    <path fill="#FF9800" d="M6.5 6.5L9.75.87A6.5 6.5 0 0 1 12.13 3.25Z"/>
    <path fill="#FDD835" d="M6.5 6.5L12.13 3.25A6.5 6.5 0 0 1 13 6.5Z"/>
    <path fill="#43A047" d="M6.5 6.5L13 6.5A6.5 6.5 0 0 1 12.13 9.75Z"/>
    <path fill="#00ACC1" d="M6.5 6.5L12.13 9.75A6.5 6.5 0 0 1 9.75 12.13Z"/>
    <path fill="#1E88E5" d="M6.5 6.5L9.75 12.13A6.5 6.5 0 0 1 6.5 13Z"/>
    <path fill="#3949AB" d="M6.5 6.5L6.5 13A6.5 6.5 0 0 1 3.25 12.13Z"/>
    <path fill="#8E24AA" d="M6.5 6.5L3.25 12.13A6.5 6.5 0 0 1 .87 9.75Z"/>
    <path fill="#D81B60" d="M6.5 6.5L.87 9.75A6.5 6.5 0 0 1 0 6.5Z"/>
    <path fill="#E53935" d="M6.5 6.5L0 6.5A6.5 6.5 0 0 1 .87 3.25Z"/>
    <path fill="#FF5722" d="M6.5 6.5L.87 3.25A6.5 6.5 0 0 1 3.25.87Z"/>
    <path fill="#FF7043" d="M6.5 6.5L3.25.87A6.5 6.5 0 0 1 6.5 0Z"/>
  </g>
  <circle cx="6.5" cy="6.5" r="2" fill="#FFFFFF" fill-opacity="0.85"/>
</svg>
